<svg xmlns="http://www.w3.org/2000/svg" height="370" width="370">
 <g transform="translate(-322.2 -63.64)">
  <g transform="translate(9.586 -1.332)">
   <path  d="m331.7 209c-4.88 1.41-8.19 4.51-7.32 12.1l28.57 129.4 3.7 8.19 37.99 64.22c3.34 8.25 8.07 9.7 13.4 8.22l225.8-47.98c4.09-1.82 6.24-5.77 7.13-11.11l29.76-141.4c1.34-3.77-1.43-7.53-7.95-11.3l-66.54-43.39c-1.64-0.94-3.07-2.21-5.58-1.75z" stroke="#333" stroke-width="4" fill="none"/>
   <g>
    <path  d="m397.8 351.9 12.83 64.83 80.57-16.63 63.93-13.19 49.12-10.14 16.54-3.41 7.55-1.62-54.33-51.95-41.61-4.62-105.2 21.14z" fill="#a52f5e"/>
    <g stroke="#000">
     <path  d="m588.7 174.5-255.7 34.14 28.71 38.87 36.01 104.4 162.4-29.88 13.86-2.23 24.09-140.6-4.28-4.72zm-8.77 40.87-3.47 19.68-12.52 2.85 3.22-20.66zm-25.65 3.79s-2.69 19.8-2.81 20.7-12.57 1.92-12.57 1.92l2.38-20.72zm-30.19 4.44-0.39 20.56-10.27 1.59 1.54-20.79zm-22.53 3.34-1.03 20.85-13.03 2.02 0.58-20.88zm-27.06 3.99-0.18 20.87-13.21 2.09-0.35-20.93zm-27.64 4.08 0.8 19.98-13.42 3.02-1.27-19.96zm-28.07 4.15 1.84 20.96-13.76 2.13-2.34-20.98zm-28.68 4.23 2.87 21.01-13.98 2.17-3.4-21.03zm173 39.55-2.08 26.79-8.6 1.79 4.3-27.5zm-30.04 5.12-0.73 27.09-1.92 0.33 1.36-27.2zm-11.19 1.91-2.58 27.51-1.59 0.29 0.16-27.13zm-24.65 4.19-0.45 27.37-8.76 1.57-1.13-27.18zm-26.47 4.52 2.03 27.16-10.46 1.89-0.46-27.53zm-33.59 5.73 2.05-0.35 3.18 27.25-3.49 0.63zm-12.51 2.13 2.53 29.75-5.29-29.28zm-25.33 4.32 3.75 27.52-7.74 1.4-5.41-27.31z" stroke-width="2.3" fill="#af0046"/>
     <g stroke-width="1.5">
      <path  d="m365.8 279-41.36-57.89 29.03 131.9 42.44 72.06z" fill="#f70064"/>
      <path  d="m365.8 279 10.32-11.9-43.01-58.43c-6.02 1.02-9.81 4.26-8.67 12.44z" fill="#ff1473"/>
      <path  d="m598 179.2-9.12 54.93-8.28 45.91-6.56 39.81 10.86 18.58 35.92 34.99 7.55-1.62 21.19-103.5 10.05-45.11z" fill="#9e003c"/>
      <path  d="m663.1 222c-1.4 0-2.68 0.33-3.53 1.17-2.03 0.32-283.5 43.98-283.5 43.98-10.66 3.42-10.53 8.65-9.92 13.95l30.54 144.3c1.41 5.1 4.94 6.48 9.4 6.23l226.9-49.41c4.1-1.52 6.57-5.13 7.99-10.09l29.78-142.6c1.8-3.95-3.49-7.42-7.69-7.49zm-13.58 46.28-9.41 45.8-13.11 2.44 8.49-45.85 14.03-2.39zm-28.2 4.81-7.55 45.9-13.35 2.49 7.3-46.07 13.6-2.32zm-28.79 4.91-5.59 45.99-13.56 2.32 4.52-45.85 14.63-2.46zm-29.37 5.02-3.57 46.07-13.2 2.46 1.85-45.99 14.92-2.54zm-29.94 5.12-1.52 46.15-14.14 2.64 0.36-46.21 15.3-2.58zm-30.78 5.22 0.81 46.23-14.41 2.69-1.9-46.28 15.5-2.64zm-31.63 5.4 3.46 46.23-14.72 2.74-4.21-46.33 15.47-2.64zm-31.54 5.38 5.42 46.37-15.02 2.8-6.65-46.4 16.25-2.77zm-32.68 5.57 7.8 45.81-15.21 3.48-9.2-46.45 16.61-2.84zm230.7 18.28-8.94 43.81-12.03 2.49 8.15-43.84 12.82-2.46zm-26 5.05-7.03 43.79-12.13 2.51 6.31-43.84 12.85-2.46zm-26.7 5.11-4.67 43.7-12.34 2.55 4.37-43.83 12.64-2.42zm-26.07 4.98-3.38 43.84-12.57 2.59 1.98-43.75 13.97-2.68zm-27.24 5.22-1.32 43.82-12.79 2.64 0.35-43.82 13.76-2.64zm-27.93 5.34 0.95 43.81-13.09 2.66-1.77-43.81 13.91-2.66zm-28.14 5.38 2.88 43.8-13.25 2.73-3.99-43.78 14.36-2.75zm-28.86 5.49c0.28-0.1 5.13 43.8 5.13 43.8l-13.49 2.79-6.28-43.75s14.36-2.74 14.64-2.84zm-29.43 5.66 7.46 43.73-13.74 2.84-8.66-43.71 14.94-2.86z" fill="#d40055"/>
     </g>
    </g>
   </g>
   <g fill="#916f7c">
    <circle cx="527" stroke="#1b0202" cy="267.6" r="6.25" stroke-width="2.716"/>
    <path  d="m520.6 267.6 5.36 4.24c3.83 1.25 6.42 0.19 6.58-5.44l3.19-133.5c0-13.78-2.42-25.62-11.11-32.53l-54.01-32.96c-11.99-1.332-12.13 9.198-12.46 19.53l1.26 104.9 7.85-1.01-0.1-102.7c-0.17-7.978 0.67-13.01 4.62-9.095l46.5 29.64c7.16 5.15 7.38 15.06 7.33 25.17l-2.3 131.1z" stroke="#000" stroke-width="2"/>
    <circle stroke-width="2.716" stroke="#1b0202" cy="210" cx="466.8" r="4.603"/>
   </g>
   <g fill-rule="evenodd">
    <path  d="m667.9 222.7-73.66-48.54 3.87 5.05 61.48 43.87z" stroke="#000" stroke-width=".75" fill="#d40055"/>
    <path  d="m598.1 179.9 61.03 42.81 3.39-0.29-64.31-43.72-1.62-2.09z" fill="#ff3d88"/>
    <path opacity=".184"  d="m325 217.2 41.48 55.11 3.03-3.19-42.29-57.21-2 3.39z" fill="#f385b1"/>
   </g>
  </g>
 </g>
</svg>
